<?xml version="1.0" encoding="UTF-8" standalone="no"?><!DOCTYPE svg PUBLIC "-//W3C//DTD SVG 1.1//EN" "http://www.w3.org/Graphics/SVG/1.1/DTD/svg11.dtd"><svg width="100%" height="100%" viewBox="0 0 639 111" version="1.1" xmlns="http://www.w3.org/2000/svg" xmlns:xlink="http://www.w3.org/1999/xlink" xml:space="preserve" xmlns:serif="http://www.serif.com/" style="fill-rule:evenodd;clip-rule:evenodd;stroke-linejoin:round;stroke-miterlimit:2;"><g><path d="M53.919,0.419l6.397,6.397l-6.397,6.397l-53.919,0l7.387,-12.794l46.532,0Z" style="fill:#1fe676;"/><path d="M38.04,53.511l-2.342,8.739l-8.739,-2.342l-26.959,-46.695l14.774,0l23.266,40.298Z" style="fill:#008a47;"/><path d="M33.369,70.57l2.342,-8.739l8.739,2.341l26.959,46.695l-14.774,0l-23.266,-40.297Z" style="fill:#1fe676;"/><path d="M87.288,57.775l8.739,-2.341l2.341,8.738l-26.959,46.695l-7.387,-12.794l23.266,-40.298Z" style="fill:#008a47;"/><path d="M104.753,53.092l-8.739,2.342l-2.341,-8.739l26.959,-46.695l7.387,12.794l-23.266,40.298Z" style="fill:#1fe676;"/><path d="M66.713,12.794l-6.397,-6.397l6.397,-6.397l53.919,0l-7.387,12.794l-46.532,0Z" style="fill:#008a47;"/></g><g><path d="M153.166,21.923l14.48,0c2.965,0 5.654,0.121 8.068,0.362c2.413,0.241 4.637,0.638 6.671,1.189c2.034,0.552 3.93,1.242 5.688,2.069c1.759,0.827 3.465,1.862 5.12,3.103c4.344,3.172 7.654,7.119 9.929,11.842c2.275,4.724 3.413,10.016 3.413,15.877c0,5.929 -1.172,11.239 -3.516,15.928c-2.345,4.688 -5.792,8.688 -10.343,11.997c-1.724,1.241 -3.431,2.293 -5.12,3.155c-1.689,0.862 -3.516,1.551 -5.482,2.068c-1.965,0.517 -4.12,0.879 -6.464,1.086c-2.344,0.207 -5.068,0.311 -8.171,0.311l-14.273,0l0,-68.987Zm15.101,59.161c4.206,0 7.722,-0.379 10.549,-1.138c2.827,-0.758 5.448,-2.034 7.861,-3.827c3.034,-2.206 5.361,-5.016 6.981,-8.429c1.621,-3.413 2.431,-7.154 2.431,-11.222c0,-4.137 -0.828,-7.929 -2.482,-11.377c-1.655,-3.448 -3.965,-6.275 -6.93,-8.481c-2.275,-1.724 -4.861,-2.965 -7.757,-3.724c-2.896,-0.758 -6.447,-1.137 -10.653,-1.137l-4.655,0l0,49.335l4.655,0Z" style="fill-rule:nonzero;"/><path d="M227.324,74.154l-7.757,16.756l-11.17,0l34.131,-73.331l32.89,73.331l-11.377,0l-7.24,-16.756l-29.477,0Zm14.997,-33.2l-10.653,23.375l20.893,0l-10.24,-23.375Z" style="fill-rule:nonzero;"/><path d="M269.626,21.923l11.998,0l15.721,27.615l15.928,-27.615l11.894,0l-22.547,39.199l0,29.788l-10.446,0l0,-29.788l-22.548,-39.199Z" style="fill-rule:nonzero;"/><path d="M361.367,37.23c-1.593,-2.62 -3.118,-4.413 -4.573,-5.378c-1.456,-0.965 -3.396,-1.448 -5.821,-1.448c-2.911,0 -5.32,0.828 -7.226,2.482c-1.906,1.655 -2.859,3.689 -2.859,6.103c0,2.344 1.107,4.275 3.321,5.792c0.484,0.344 0.917,0.62 1.297,0.827c0.381,0.207 0.917,0.465 1.609,0.776c0.692,0.31 1.66,0.724 2.906,1.241c1.245,0.517 3.01,1.258 5.292,2.224c5.605,2.344 9.704,5.137 12.299,8.377c2.594,3.241 3.891,7.24 3.891,11.998c0,3.172 -0.551,6.102 -1.655,8.791c-1.103,2.69 -2.637,5.017 -4.602,6.982c-1.965,1.965 -4.31,3.499 -7.033,4.602c-2.724,1.104 -5.672,1.655 -8.843,1.655c-3.793,0 -7.24,-0.793 -10.343,-2.379c-3.103,-1.586 -5.654,-3.861 -7.654,-6.826c-1.172,-1.655 -2.051,-3.275 -2.637,-4.861c-0.586,-1.586 -1.052,-3.689 -1.397,-6.309l10.55,-2.379c0.276,2.069 0.534,3.62 0.776,4.654c0.241,1.035 0.638,2 1.189,2.896c0.897,1.655 2.241,2.965 4.034,3.931c1.793,0.965 3.758,1.448 5.895,1.448c3.31,0 6.016,-1.086 8.119,-3.258c2.103,-2.172 3.155,-4.913 3.155,-8.223c0,-3.861 -1.586,-6.895 -4.758,-9.102c-0.62,-0.413 -1.137,-0.741 -1.551,-0.982c-0.414,-0.242 -0.983,-0.535 -1.707,-0.879c-0.724,-0.345 -1.724,-0.793 -2.999,-1.345c-1.276,-0.552 -3.086,-1.31 -5.43,-2.275c-9.447,-3.931 -14.17,-9.757 -14.17,-17.48c0,-2.62 0.517,-5.051 1.552,-7.291c1.034,-2.241 2.482,-4.172 4.344,-5.792c1.861,-1.621 4.051,-2.896 6.567,-3.827c2.517,-0.931 5.258,-1.397 8.223,-1.397c4.137,0 7.688,0.914 10.653,2.741c2.965,1.828 5.62,4.775 7.964,8.843l-8.378,5.068Z" style="fill-rule:nonzero;"/><path d="M404.187,90.91l-10.447,0l0,-59.161l-15.824,0l0,-9.826l42.095,0l0,9.826l-15.824,0l0,59.161Z" style="fill-rule:nonzero;"/><path d="M474.001,90.91l-12.722,0l-19.651,-28.236l-1.862,0l0,28.236l-10.446,0l0,-68.987l12.204,0c4.482,0 8.085,0.31 10.808,0.931c2.724,0.62 5.189,1.655 7.396,3.103c2.551,1.723 4.568,4.033 6.05,6.929c1.483,2.896 2.224,5.999 2.224,9.309c0,4.896 -1.396,9.102 -4.189,12.618c-2.793,3.517 -6.499,5.758 -11.119,6.723l21.307,29.374Zm-30.925,-37.338c4.688,0 8.17,-0.793 10.446,-2.379c1.379,-0.965 2.448,-2.241 3.206,-3.827c0.759,-1.586 1.138,-3.275 1.138,-5.068c0,-1.654 -0.362,-3.206 -1.086,-4.654c-0.724,-1.448 -1.707,-2.62 -2.948,-3.516c-1.241,-0.828 -2.672,-1.431 -4.292,-1.81c-1.621,-0.38 -3.637,-0.569 -6.051,-0.569l-3.723,0l0,21.823l3.31,0Z" style="fill-rule:nonzero;"/><path d="M515.786,20.578c4.964,0 9.618,0.949 13.962,2.845c4.344,1.896 8.137,4.464 11.378,7.705c3.24,3.241 5.809,7.033 7.705,11.377c1.896,4.344 2.844,8.998 2.844,13.963c0,4.965 -0.948,9.619 -2.844,13.963c-1.896,4.344 -4.499,8.136 -7.809,11.377c-3.31,3.241 -7.171,5.792 -11.584,7.654c-4.413,1.861 -9.136,2.792 -14.169,2.792c-4.965,0 -9.843,-1.086 -14.636,-3.258c-4.792,-2.172 -8.912,-5.154 -12.359,-8.946c-5.792,-6.413 -8.688,-14.377 -8.688,-23.892c0,-4.896 0.965,-9.498 2.896,-13.808c1.93,-4.309 4.533,-8.067 7.809,-11.274c3.275,-3.206 7.102,-5.757 11.48,-7.653c4.379,-1.896 9.05,-2.845 14.015,-2.845Zm-0.104,9.826c-3.585,0 -6.929,0.672 -10.032,2.017c-3.103,1.345 -5.81,3.172 -8.119,5.482c-2.31,2.31 -4.138,5.033 -5.482,8.17c-1.345,3.138 -2.017,6.534 -2.017,10.188c0,7.654 2.551,13.929 7.654,18.824c2.413,2.344 5.171,4.154 8.274,5.43c3.103,1.276 6.24,1.914 9.412,1.914c3.654,0 7.05,-0.673 10.188,-2.017c3.137,-1.345 5.878,-3.172 8.222,-5.482c2.345,-2.31 4.172,-5.051 5.482,-8.223c1.31,-3.171 1.965,-6.585 1.965,-10.239c0,-3.654 -0.655,-7.068 -1.965,-10.239c-1.31,-3.172 -3.103,-5.93 -5.378,-8.275c-2.276,-2.344 -4.965,-4.188 -8.068,-5.533c-3.103,-1.345 -6.481,-2.017 -10.136,-2.017Z" style="fill-rule:nonzero;"/><path d="M576.808,16.752l23.685,53.575l24.513,-53.575l13.032,74.158l-10.653,0l-6.62,-41.579l-20.375,44.785l-19.858,-44.888l-7.447,41.682l-10.757,0l14.48,-74.158Z" style="fill-rule:nonzero;"/></g></svg>