<?xml version="1.0" encoding="UTF-8" standalone="no"?><!DOCTYPE svg PUBLIC "-//W3C//DTD SVG 1.1//EN" "http://www.w3.org/Graphics/SVG/1.1/DTD/svg11.dtd"><svg width="100%" height="100%" viewBox="0 0 778 180" version="1.1" xmlns="http://www.w3.org/2000/svg" xmlns:xlink="http://www.w3.org/1999/xlink" xml:space="preserve" xmlns:serif="http://www.serif.com/" style="fill-rule:evenodd;clip-rule:evenodd;stroke-linejoin:round;stroke-miterlimit:2;"><path d="M717.073,180c32.195,0 54.634,-16.585 54.634,-40.731c0,-20.732 -12.196,-32.928 -37.805,-38.293l-16.098,-3.415c-8.048,-1.707 -12.438,-5.366 -12.438,-10c0,-6.341 6.098,-10.244 16.098,-10.244c11.218,0 21.951,3.171 34.633,10.488l10.976,-25.122c-11.464,-8.293 -27.073,-12.927 -44.391,-12.927c-31.463,0 -51.951,16.098 -51.951,41.22c0,20 11.951,31.707 37.318,36.829l14.878,3.171c10,2.195 13.415,5.122 13.415,10.975c0,6.342 -7.074,10 -19.757,10c-10.488,0 -25.854,-5.609 -38.781,-14.146l-10.731,25.366c10.976,10.244 30,16.585 50,16.829m-123.171,-30.488c-17.805,0 -29.268,-12.927 -29.268,-34.634c0,-21.707 11.463,-34.634 29.268,-34.634c17.805,0 29.269,12.927 29.269,34.634c0,21.707 -11.464,34.634 -29.269,34.634m8.049,30.488c29.513,0 55.853,-23.902 55.853,-65.122c0,-40 -23.902,-65.122 -54.633,-65.122c-16.586,0 -29.269,7.073 -37.074,18.781l0,-68.537l-33.658,0l0,142.195c0,11.707 -0.488,21.951 -1.464,34.39l31.707,0c0.489,-4.878 0.976,-10 1.22,-15.609c9.025,12.682 22.927,19.024 38.049,19.024m-149.756,-30.488c-17.805,0 -29.268,-12.927 -29.268,-34.634c0,-21.707 11.463,-34.634 29.268,-34.634c17.805,0 29.269,12.927 29.269,34.634c0,21.707 -11.464,34.634 -29.269,34.634m-1.22,30.488c38.049,0 65.122,-25.122 65.122,-65.122c0,-40 -25.853,-65.122 -63.902,-65.122c-37.317,0 -63.902,27.317 -63.902,65.122c0,38.78 25.365,65.122 62.682,65.122m-110.731,0c16.829,0 34.146,-5.854 44.634,-15.366l-12.196,-25.61c-9.267,5.854 -21.218,9.756 -30.487,9.756c-19.024,0 -31.22,-12.926 -31.22,-33.902c0,-20.244 11.952,-33.902 32.927,-33.902c8.78,0 19.025,3.902 27.562,9.512l13.414,-26.586c-10.732,-9.268 -25.366,-14.146 -41.707,-14.146c-42.196,0 -66.83,30 -66.83,65.122c0,40 24.391,65.122 63.903,65.122m-112.927,-48.049c0,16.342 -13.903,21.707 -25.122,21.707c-11.463,0 -17.805,-4.389 -17.805,-13.658c0,-8.049 5.122,-13.902 19.024,-14.634l23.903,-1.22l0,7.805Zm5.61,44.634l31.707,0c-2.439,-10.243 -4.146,-27.073 -4.146,-38.78l0,-39.268c0,-30.245 -18.781,-48.781 -51.952,-48.781c-35.853,0 -51.463,22.683 -53.902,40.732l31.707,0c1.951,-8.049 9.024,-13.171 21.22,-13.171c11.951,0 19.756,6.098 19.756,18.293l0,5.122l-30.732,1.463c-32.439,1.707 -45.61,18.049 -45.61,40c0,23.659 16.829,37.805 42.439,37.805c19.025,0 31.22,-9.269 37.318,-16.829c0.488,5.122 1.463,10 2.195,13.414m-132.439,-109.024l35.609,0l0,-67.561l-69.512,0l0,33.659l33.903,0l0,33.902Zm-33.171,112.439c40.975,0 68.78,-28.78 68.78,-68.78l0,-21.22l-35.609,0l0,21.22c0,20.975 -12.927,34.634 -33.171,34.634c-19.025,0 -30,-11.952 -31.952,-28.781l-35.365,0c1.951,36.829 28.536,62.927 67.317,62.927" style="fill-rule:nonzero;"/><path d="M772.539,169.863c-0.281,0 -0.536,0.007 -0.766,0.019l0,1.761c0.23,0.026 0.466,0.038 0.707,0.038c0.907,0 1.36,-0.312 1.36,-0.937c0,-0.332 -0.103,-0.562 -0.306,-0.69c-0.205,-0.128 -0.536,-0.191 -0.995,-0.191m-1.455,4.211l0,-4.766c0.293,-0.025 0.567,-0.045 0.823,-0.057c0.255,-0.013 0.465,-0.02 0.632,-0.02c1.339,0 2.01,0.504 2.01,1.513c0,0.663 -0.314,1.122 -0.939,1.378l1.053,1.952l-0.785,0l-0.918,-1.78c-0.141,0.012 -0.288,0.018 -0.441,0.018c-0.28,0 -0.53,-0.011 -0.746,-0.038l0,1.8l-0.689,0Zm1.55,1.589c1.251,0 2.211,-0.342 2.882,-1.025c0.669,-0.682 1.004,-1.662 1.004,-2.938c0,-1.275 -0.335,-2.255 -1.004,-2.938c-0.671,-0.682 -1.631,-1.024 -2.882,-1.024c-1.25,0 -2.213,0.345 -2.89,1.034c-0.677,0.689 -1.015,1.665 -1.015,2.928c0,1.264 0.338,2.24 1.015,2.929c0.677,0.689 1.64,1.034 2.89,1.034m-4.862,-3.963c0,-0.982 0.202,-1.837 0.604,-2.565c0.401,-0.726 0.967,-1.289 1.693,-1.684c0.728,-0.395 1.582,-0.593 2.565,-0.593c0.982,0 1.838,0.198 2.565,0.593c0.728,0.395 1.291,0.958 1.694,1.684c0.401,0.728 0.602,1.583 0.602,2.565c0,0.983 -0.201,1.838 -0.602,2.565c-0.403,0.727 -0.966,1.288 -1.694,1.685c-0.727,0.395 -1.583,0.593 -2.565,0.593c-0.983,0 -1.837,-0.198 -2.565,-0.593c-0.726,-0.397 -1.292,-0.958 -1.693,-1.685c-0.402,-0.727 -0.604,-1.582 -0.604,-2.565" style="fill-rule:nonzero;"/></svg>